# xmcd
#
# Track frame offsets:
# 150
# 3732
# 16440
# 29348
# 45032
# 55926
# 70327
# 79710
# 82077
# 92218
# 103570
# 115606
# 126562
# 139250
# 151607
# 157452
# 171894
#
# Disc length: 2299 seconds
#
#
# Revision: 1
# Processed by: cddbd v1.5.1PL0 Copyright (c) Steve Scherf et al.
# Submitted via: FreeRIP 2.70 
#
DISCID=de08f911
DTITLE=MULITA - Cantando pra Burro
DYEAR=2004
DGENRE=Country
TTITLE0=ABERTURA
TTITLE1=NASCIMENTO DO MULITA
TTITLE2=PENXEI, PENXEI
TTITLE3=MULITA EM ALTA VELOCIDADE
TTITLE4=MULITA NA CAPITAL
TTITLE5=GAÚCHO MACHOCHO
TTITLE6=CAFUMANGO
TTITLE7=SIMPATIA PARA NÃO VIRAR GAY
TTITLE8=PULVERIZANDO O TRIÂNGULO
TTITLE9=PROESAS DO NICANOR
TTITLE10=SOMA DE AMEXA XECA
TTITLE11=SOGRA DO JUVÊNCIO
TTITLE12=MANA SAPECA
TTITLE13=ROMANCE NO INVERNO
TTITLE14=MINHA PRIMEIRA VEZ
TTITLE15=BICHARADA
TTITLE16=ENCERRAMENTO
EXTD=ID3G:   2 YEAR: 2004
EXTT0=
EXTT1=
EXTT2=
EXTT3=
EXTT4=
EXTT5=
EXTT6=
EXTT7=
EXTT8=
EXTT9=
EXTT10=
EXTT11=
EXTT12=
EXTT13=
EXTT14=
EXTT15=
EXTT16=
PLAYORDER=
